<svg id="Camada_1" data-name="Camada 1" xmlns="http://www.w3.org/2000/svg" viewBox="0 0 1647.58 229.13"><defs><style>.cls-1{fill:#00b5a5;}.cls-2{fill:#fff;}</style></defs><polygon class="cls-1" points="55.41 0 55.41 55.33 0 0 55.41 0"/><polygon class="cls-1" points="825.07 55.35 880.39 55.35 825.07 110.73 825.07 55.35"/><polygon class="cls-1" points="945.83 55.35 1001.11 55.35 945.83 110.68 945.83 55.35"/><polygon class="cls-2" points="19.99 90.76 19.99 229.13 55.41 229.13 55.41 55.35 19.99 90.76"/><path class="cls-2" d="M189.67,55.56c-16.69,0-34.81,6.59-47.93,17.31V55.35H106.33V229.13h35.41V107.32c11-12.17,24.42-18.08,40.91-18.08,27.53,0,40.91,14.63,40.91,44.75v95.14H259V128.72C259,80.18,235.65,55.56,189.67,55.56Z"/><polygon class="cls-2" points="451.37 55.35 413.35 55.35 363.61 175.46 311.42 55.35 270.17 55.35 349.83 228.42 350.16 229.13 375.27 229.13 451.37 55.35"/><path class="cls-2" d="M534.36,55.35c-26.68,0-47.85,8.38-62.89,24.9-15.22,16.33-22.94,37.19-22.94,62,0,26,8.24,47.3,24.48,63.19s37.43,23.71,64.53,23.71c25.35,0,46.31-7.35,62.31-21.84l1.89-1.74-15.76-26c-11,10.38-26.62,15.64-46.32,15.64-28,0-47.61-15.43-51.41-40.38H609.6l.59-3A101.8,101.8,0,0,0,612,132c0-22.43-7.53-40.94-22.37-55C575,62.61,556.37,55.35,534.36,55.35Zm40.56,69H486.69c4.56-21.69,22.15-35.08,46.25-35.08S572.22,102.06,574.92,124.38Z"/><path class="cls-2" d="M992.9,187.46a36.38,36.38,0,0,1-22.68,8c-16.43,0-24.41-11.66-24.41-35.64V7.82L910.39,43.24V162.63c0,45.36,16.89,66.5,53.16,66.5,16.68,0,31-4.77,42.67-14.16l2.11-1.71-11.6-28.76Z"/><path class="cls-2" d="M872.16,187.46a36.36,36.36,0,0,1-22.68,8c-16.42,0-24.41-11.66-24.41-35.64V7.82L789.66,43.24V162.63c0,45.36,16.89,66.5,53.16,66.5,16.67,0,31-4.77,42.67-14.16l2.11-1.71L876,184.5Z"/><path class="cls-2" d="M1307.16,55.35c-26.16,0-47.76,8.35-64.22,24.8-16.21,16.22-24.43,37.11-24.43,62.08s8.22,45.87,24.46,62.47c16.57,16.21,38.17,24.43,64.19,24.43s47.62-8.23,63.85-24.46c16.69-16.69,24.8-37.12,24.8-62.44,0-25.1-8.34-46-24.78-62.06C1354.92,63.7,1333.42,55.35,1307.16,55.35Zm51.16,86.88c0,31.17-21,52.94-51.16,52.94-15.05,0-27.49-5-37-14.79S1256,158,1256,142.23s4.89-28.48,14.54-38.13c9.49-9.82,21.81-14.8,36.64-14.8s27.15,5,36.63,14.8C1353.57,114.23,1358.32,126.7,1358.32,142.23Z"/><path class="cls-2" d="M1108.85,55.35c-26.14,0-47.74,8.35-64.2,24.8-16.22,16.22-24.44,37.11-24.44,62.08s8.22,45.87,24.47,62.48c16.57,16.2,38.16,24.42,64.17,24.42,26.16,0,47.64-8.23,63.87-24.46,16.68-16.69,24.79-37.12,24.79-62.44,0-25.1-8.34-46-24.77-62.06C1156.63,63.7,1135.13,55.35,1108.85,55.35ZM1160,142.23c0,31.17-21,52.94-51.18,52.94-15,0-27.49-5-37-14.79s-14.19-22.36-14.19-38.15,4.88-28.48,14.53-38.13c9.49-9.82,21.82-14.8,36.63-14.8s27.15,5,36.64,14.8C1155.27,114.23,1160,126.7,1160,142.23Z"/><path class="cls-2" d="M1496.44,189c-6.57,4.26-12.64,6.43-18,6.43-7.39,0-14.93-3.28-14.93-27.57V7.82l-35.42,35.42V180.53c0,32.25,13.28,48.6,39.47,48.6,15.78,0,28.7-4.17,39.5-12.73l1.93-1.55-8.42-28.49Z"/><path class="cls-2" d="M1593.84,125.9l-.38,1.16h0l.37-1.16c-17.3-5.58-32.26-10.41-32.26-22.25,0-9.49,9-16.12,21.78-16.12,14.05,0,26.33,4.79,37.57,14.66l3.27,2.87,17.36-27.85-2.2-2.08c-14.07-13.3-32.85-19.78-57.41-19.78-34.61,0-57.86,19.55-57.86,48.66,0,36,30.53,45.89,55.11,53.84,16.59,5.35,30.91,10,30.91,20.85,0,12.61-12.37,18.24-24.62,18.24-7.09,0-15-1.87-24-5.7-8.23-3.63-14.87-8.2-19.23-13.2l-2.91-3.38-19.79,25.08-.55.68,1.43,2.24c4.26,6.57,12.3,12.58,24.58,18.35a88.34,88.34,0,0,0,37.28,8.12c18.43,0,33.92-4.28,46-12.72,12.79-8.91,19.28-22.07,19.28-39.13C1647.58,143.26,1617.79,133.63,1593.84,125.9Z"/><path class="cls-2" d="M706.24,125.9h0C688.92,120.32,674,115.48,674,103.65c0-9.49,9-16.12,21.78-16.12,14,0,26.33,4.79,37.57,14.66l3.27,2.86L754,77.21l-2.2-2.08c-14.07-13.3-32.85-19.78-57.41-19.78-34.61,0-57.86,19.55-57.86,48.66,0,36,30.54,45.89,55.11,53.84,16.58,5.35,30.91,10,30.91,20.85,0,12.61-12.37,18.24-24.62,18.24-7.1,0-15-1.87-24-5.7-8.23-3.63-14.88-8.2-19.22-13.2l-2.93-3.38L631.4,200.42l1.43,2.24c4.26,6.57,12.29,12.58,24.58,18.35a88.34,88.34,0,0,0,37.28,8.12c18.44,0,33.92-4.28,46-12.72C753.5,207.5,760,194.33,760,177.28,760,143.26,730.19,133.63,706.24,125.9Zm-.38,1.17Z"/></svg>